<?xml version="1.0" encoding="utf-8" standalone="no"?>
<!DOCTYPE svg PUBLIC "-//W3C//DTD SVG 1.1//EN"
  "http://www.w3.org/Graphics/SVG/1.1/DTD/svg11.dtd">
<svg xmlns:xlink="http://www.w3.org/1999/xlink" width="1432.8pt" height="1000.8pt" viewBox="0 0 1432.8 1000.8" xmlns="http://www.w3.org/2000/svg" version="1.1">
 <metadata>
  <rdf:RDF xmlns:dc="http://purl.org/dc/elements/1.1/" xmlns:cc="http://creativecommons.org/ns#" xmlns:rdf="http://www.w3.org/1999/02/22-rdf-syntax-ns#">
   <cc:Work>
    <dc:type rdf:resource="http://purl.org/dc/dcmitype/StillImage"/>
    <dc:date>2026-04-23T20:10:31.728184</dc:date>
    <dc:format>image/svg+xml</dc:format>
    <dc:creator>
     <cc:Agent>
      <dc:title>Matplotlib v3.10.3, https://matplotlib.org/</dc:title>
     </cc:Agent>
    </dc:creator>
   </cc:Work>
  </rdf:RDF>
 </metadata>
 <defs>
  <style type="text/css">*{stroke-linejoin: round; stroke-linecap: butt}</style>
 </defs>
 <g id="figure_1">
  <g id="patch_1">
   <path d="M 0 1000.8 
L 1432.8 1000.8 
L 1432.8 0 
L 0 0 
z
" style="fill: #1a1a2e"/>
  </g>
  <g id="axes_1">
   <g id="line2d_1">
    <path d="M 448.984643 764.753636 
L 634.356127 470.193269 
" clip-path="url(#p4d2c54049d)" style="fill: none; stroke: #aaaaaa; stroke-opacity: 0.6; stroke-width: 0.8; stroke-linecap: square"/>
   </g>
   <g id="line2d_2">
    <path d="M 448.984643 764.753636 
L 523.198685 936.559796 
" clip-path="url(#p4d2c54049d)" style="fill: none; stroke: #aaaaaa; stroke-opacity: 0.6; stroke-width: 0.8; stroke-linecap: square"/>
   </g>
   <g id="line2d_3">
    <path d="M 448.984643 764.753636 
L 612.04515 699.778941 
" clip-path="url(#p4d2c54049d)" style="fill: none; stroke: #aaaaaa; stroke-opacity: 0.6; stroke-width: 0.8; stroke-linecap: square"/>
   </g>
   <g id="line2d_4">
    <path d="M 448.984643 764.753636 
L 601.375541 848.032519 
" clip-path="url(#p4d2c54049d)" style="fill: none; stroke: #aaaaaa; stroke-opacity: 0.6; stroke-width: 0.8; stroke-linecap: square"/>
   </g>
   <g id="line2d_5">
    <path d="M 448.984643 764.753636 
L 229.04421 871.755139 
" clip-path="url(#p4d2c54049d)" style="fill: none; stroke: #aaaaaa; stroke-opacity: 0.6; stroke-width: 0.8; stroke-linecap: square"/>
   </g>
   <g id="line2d_6">
    <path d="M 448.984643 764.753636 
L 421.474174 948.763636 
" clip-path="url(#p4d2c54049d)" style="fill: none; stroke: #aaaaaa; stroke-opacity: 0.6; stroke-width: 0.8; stroke-linecap: square"/>
   </g>
   <g id="line2d_7">
    <path d="M 448.984643 764.753636 
L 238.493708 685.80998 
" clip-path="url(#p4d2c54049d)" style="fill: none; stroke: #aaaaaa; stroke-opacity: 0.6; stroke-width: 0.8; stroke-linecap: square"/>
   </g>
   <g id="line2d_8">
    <path d="M 448.984643 764.753636 
L 344.90156 883.060459 
" clip-path="url(#p4d2c54049d)" style="fill: none; stroke: #aaaaaa; stroke-opacity: 0.6; stroke-width: 0.8; stroke-linecap: square"/>
   </g>
   <g id="line2d_9">
    <path d="M 634.356127 470.193269 
L 735.345944 561.672649 
" clip-path="url(#p4d2c54049d)" style="fill: none; stroke: #aaaaaa; stroke-opacity: 0.6; stroke-width: 0.8; stroke-linecap: square"/>
   </g>
   <g id="line2d_10">
    <path d="M 634.356127 470.193269 
L 760.477292 346.800027 
" clip-path="url(#p4d2c54049d)" style="fill: none; stroke: #aaaaaa; stroke-opacity: 0.6; stroke-width: 0.8; stroke-linecap: square"/>
   </g>
   <g id="line2d_11">
    <path d="M 634.356127 470.193269 
L 664.790744 232.671221 
" clip-path="url(#p4d2c54049d)" style="fill: none; stroke: #aaaaaa; stroke-opacity: 0.6; stroke-width: 0.8; stroke-linecap: square"/>
   </g>
   <g id="line2d_12">
    <path d="M 634.356127 470.193269 
L 801.468634 562.650819 
" clip-path="url(#p4d2c54049d)" style="fill: none; stroke: #aaaaaa; stroke-opacity: 0.6; stroke-width: 0.8; stroke-linecap: square"/>
   </g>
   <g id="line2d_13">
    <path d="M 634.356127 470.193269 
L 596.42683 323.334563 
" clip-path="url(#p4d2c54049d)" style="fill: none; stroke: #aaaaaa; stroke-opacity: 0.6; stroke-width: 0.8; stroke-linecap: square"/>
   </g>
   <g id="line2d_14">
    <path d="M 634.356127 470.193269 
L 681.347468 318.012273 
" clip-path="url(#p4d2c54049d)" style="fill: none; stroke: #aaaaaa; stroke-opacity: 0.6; stroke-width: 0.8; stroke-linecap: square"/>
   </g>
   <g id="line2d_15">
    <path d="M 735.345944 561.672649 
L 879.92239 638.602003 
" clip-path="url(#p4d2c54049d)" style="fill: none; stroke: #aaaaaa; stroke-opacity: 0.6; stroke-width: 0.8; stroke-linecap: square"/>
   </g>
   <g id="line2d_16">
    <path d="M 735.345944 561.672649 
L 561.445416 606.637592 
" clip-path="url(#p4d2c54049d)" style="fill: none; stroke: #aaaaaa; stroke-opacity: 0.6; stroke-width: 0.8; stroke-linecap: square"/>
   </g>
   <g id="line2d_17">
    <path d="M 735.345944 561.672649 
L 818.068071 425.365855 
" clip-path="url(#p4d2c54049d)" style="fill: none; stroke: #aaaaaa; stroke-opacity: 0.6; stroke-width: 0.8; stroke-linecap: square"/>
   </g>
   <g id="line2d_18">
    <path d="M 735.345944 561.672649 
L 801.468634 562.650819 
" clip-path="url(#p4d2c54049d)" style="fill: none; stroke: #aaaaaa; stroke-opacity: 0.6; stroke-width: 0.8; stroke-linecap: square"/>
   </g>
   <g id="line2d_19">
    <path d="M 735.345944 561.672649 
L 878.208437 446.187899 
" clip-path="url(#p4d2c54049d)" style="fill: none; stroke: #aaaaaa; stroke-opacity: 0.6; stroke-width: 0.8; stroke-linecap: square"/>
   </g>
   <g id="line2d_20">
    <path d="M 735.345944 561.672649 
L 612.04515 699.778941 
" clip-path="url(#p4d2c54049d)" style="fill: none; stroke: #aaaaaa; stroke-opacity: 0.6; stroke-width: 0.8; stroke-linecap: square"/>
   </g>
   <g id="line2d_21">
    <path d="M 801.468634 562.650819 
L 879.92239 638.602003 
" clip-path="url(#p4d2c54049d)" style="fill: none; stroke: #aaaaaa; stroke-opacity: 0.6; stroke-width: 0.8; stroke-linecap: square"/>
   </g>
   <g id="line2d_22">
    <path d="M 760.477292 346.800027 
L 818.068071 425.365855 
" clip-path="url(#p4d2c54049d)" style="fill: none; stroke: #aaaaaa; stroke-opacity: 0.6; stroke-width: 0.8; stroke-linecap: square"/>
   </g>
   <g id="line2d_23">
    <path d="M 760.477292 346.800027 
L 878.208437 446.187899 
" clip-path="url(#p4d2c54049d)" style="fill: none; stroke: #aaaaaa; stroke-opacity: 0.6; stroke-width: 0.8; stroke-linecap: square"/>
   </g>
   <g id="line2d_24">
    <path d="M 760.477292 346.800027 
L 664.790744 232.671221 
" clip-path="url(#p4d2c54049d)" style="fill: none; stroke: #aaaaaa; stroke-opacity: 0.6; stroke-width: 0.8; stroke-linecap: square"/>
   </g>
   <g id="line2d_25">
    <path d="M 760.477292 346.800027 
L 681.347468 318.012273 
" clip-path="url(#p4d2c54049d)" style="fill: none; stroke-dasharray: 2.96,1.28; stroke-dashoffset: 0; stroke: #aaaaaa; stroke-opacity: 0.3; stroke-width: 0.8"/>
   </g>
   <g id="line2d_26">
    <path d="M 664.790744 232.671221 
L 646.083885 52.036364 
" clip-path="url(#p4d2c54049d)" style="fill: none; stroke: #aaaaaa; stroke-opacity: 0.6; stroke-width: 0.8; stroke-linecap: square"/>
   </g>
   <g id="line2d_27">
    <path d="M 229.04421 871.755139 
L 71.672727 942.47069 
" clip-path="url(#p4d2c54049d)" style="fill: none; stroke: #aaaaaa; stroke-opacity: 0.6; stroke-width: 0.8; stroke-linecap: square"/>
   </g>
   <g id="line2d_28">
    <path d="M 238.493708 685.80998 
L 87.68389 615.019486 
" clip-path="url(#p4d2c54049d)" style="fill: none; stroke: #aaaaaa; stroke-opacity: 0.6; stroke-width: 0.8; stroke-linecap: square"/>
   </g>
   <g id="line2d_29">
    <path d="M 681.347468 318.012273 
L 596.42683 323.334563 
" clip-path="url(#p4d2c54049d)" style="fill: none; stroke-dasharray: 2.96,1.28; stroke-dashoffset: 0; stroke: #aaaaaa; stroke-opacity: 0.3; stroke-width: 0.8"/>
   </g>
   <g id="PathCollection_1">
    <path d="M 448.984643 784.118552 
C 454.120279 784.118552 459.046264 782.078143 462.677707 778.4467 
C 466.30915 774.815257 468.34956 769.889272 468.34956 764.753636 
C 468.34956 759.618 466.30915 754.692015 462.677707 751.060572 
C 459.046264 747.429129 454.120279 745.388719 448.984643 745.388719 
C 443.849007 745.388719 438.923022 747.429129 435.291579 751.060572 
C 431.660136 754.692015 429.619727 759.618 429.619727 764.753636 
C 429.619727 769.889272 431.660136 774.815257 435.291579 778.4467 
C 438.923022 782.078143 443.849007 784.118552 448.984643 784.118552 
z
" clip-path="url(#p4d2c54049d)" style="fill: #4e79a7; fill-opacity: 0.9; stroke: #4e79a7; stroke-opacity: 0.9"/>
    <path d="M 634.356127 488.564442 
C 639.228219 488.564442 643.901418 486.628739 647.346508 483.18365 
C 650.791597 479.738561 652.7273 475.065361 652.7273 470.193269 
C 652.7273 465.321177 650.791597 460.647977 647.346508 457.202888 
C 643.901418 453.757799 639.228219 451.822096 634.356127 451.822096 
C 629.484035 451.822096 624.810835 453.757799 621.365746 457.202888 
C 617.920656 460.647977 615.984954 465.321177 615.984954 470.193269 
C 615.984954 475.065361 617.920656 479.738561 621.365746 483.18365 
C 624.810835 486.628739 629.484035 488.564442 634.356127 488.564442 
z
" clip-path="url(#p4d2c54049d)" style="fill: #e15759; fill-opacity: 0.9; stroke: #e15759; stroke-opacity: 0.9"/>
    <path d="M 735.345944 580.043822 
C 740.218037 580.043822 744.891236 578.10812 748.336326 574.66303 
C 751.781415 571.217941 753.717118 566.544741 753.717118 561.672649 
C 753.717118 556.800557 751.781415 552.127357 748.336326 548.682268 
C 744.891236 545.237179 740.218037 543.301476 735.345944 543.301476 
C 730.473852 543.301476 725.800653 545.237179 722.355563 548.682268 
C 718.910474 552.127357 716.974771 556.800557 716.974771 561.672649 
C 716.974771 566.544741 718.910474 571.217941 722.355563 574.66303 
C 725.800653 578.10812 730.473852 580.043822 735.345944 580.043822 
z
" clip-path="url(#p4d2c54049d)" style="fill: #f28e2b; fill-opacity: 0.9; stroke: #f28e2b; stroke-opacity: 0.9"/>
    <path d="M 801.468634 576.343883 
C 805.100077 576.343883 808.583275 574.901096 811.151093 572.333278 
C 813.718911 569.76546 815.161698 566.282262 815.161698 562.650819 
C 815.161698 559.019376 813.718911 555.536179 811.151093 552.968361 
C 808.583275 550.400543 805.100077 548.957755 801.468634 548.957755 
C 797.837191 548.957755 794.353994 550.400543 791.786176 552.968361 
C 789.218358 555.536179 787.77557 559.019376 787.77557 562.650819 
C 787.77557 566.282262 789.218358 569.76546 791.786176 572.333278 
C 794.353994 574.901096 797.837191 576.343883 801.468634 576.343883 
z
" clip-path="url(#p4d2c54049d)" style="fill: #f28e2b; fill-opacity: 0.9; stroke: #f28e2b; stroke-opacity: 0.9"/>
    <path d="M 760.477292 363.001879 
C 764.774074 363.001879 768.895448 361.294749 771.933732 358.256466 
C 774.972015 355.218183 776.679144 351.096808 776.679144 346.800027 
C 776.679144 342.503246 774.972015 338.381871 771.933732 335.343588 
C 768.895448 332.305304 764.774074 330.598175 760.477292 330.598175 
C 756.180511 330.598175 752.059136 332.305304 749.020853 335.343588 
C 745.98257 338.381871 744.275441 342.503246 744.275441 346.800027 
C 744.275441 351.096808 745.98257 355.218183 749.020853 358.256466 
C 752.059136 361.294749 756.180511 363.001879 760.477292 363.001879 
z
" clip-path="url(#p4d2c54049d)" style="fill: #e15759; fill-opacity: 0.9; stroke: #e15759; stroke-opacity: 0.9"/>
    <path d="M 664.790744 246.364285 
C 668.422187 246.364285 671.905385 244.921497 674.473203 242.353679 
C 677.041021 239.785861 678.483808 236.302664 678.483808 232.671221 
C 678.483808 229.039778 677.041021 225.556581 674.473203 222.988763 
C 671.905385 220.420945 668.422187 218.978157 664.790744 218.978157 
C 661.159301 218.978157 657.676104 220.420945 655.108286 222.988763 
C 652.540468 225.556581 651.09768 229.039778 651.09768 232.671221 
C 651.09768 236.302664 652.540468 239.785861 655.108286 242.353679 
C 657.676104 244.921497 661.159301 246.364285 664.790744 246.364285 
z
" clip-path="url(#p4d2c54049d)" style="fill: #e15759; fill-opacity: 0.9; stroke: #e15759; stroke-opacity: 0.9"/>
    <path d="M 879.92239 650.849452 
C 883.170452 650.849452 886.285918 649.558983 888.582644 647.262257 
C 890.87937 644.965531 892.169839 641.850064 892.169839 638.602003 
C 892.169839 635.353942 890.87937 632.238475 888.582644 629.941749 
C 886.285918 627.645023 883.170452 626.354554 879.92239 626.354554 
C 876.674329 626.354554 873.558862 627.645023 871.262136 629.941749 
C 868.96541 632.238475 867.674942 635.353942 867.674942 638.602003 
C 867.674942 641.850064 868.96541 644.965531 871.262136 647.262257 
C 873.558862 649.558983 876.674329 650.849452 879.92239 650.849452 
z
" clip-path="url(#p4d2c54049d)" style="fill: #f28e2b; fill-opacity: 0.9; stroke: #f28e2b; stroke-opacity: 0.9"/>
    <path d="M 561.445416 617.244194 
C 564.258319 617.244194 566.956393 616.126616 568.945416 614.137592 
C 570.934439 612.148569 572.052018 609.450496 572.052018 606.637592 
C 572.052018 603.824689 570.934439 601.126616 568.945416 599.137592 
C 566.956393 597.148569 564.258319 596.030991 561.445416 596.030991 
C 558.632512 596.030991 555.934439 597.148569 553.945416 599.137592 
C 551.956393 601.126616 550.838814 603.824689 550.838814 606.637592 
C 550.838814 609.450496 551.956393 612.148569 553.945416 614.137592 
C 555.934439 616.126616 558.632512 617.244194 561.445416 617.244194 
z
" clip-path="url(#p4d2c54049d)" style="fill: #f28e2b; fill-opacity: 0.9; stroke: #f28e2b; stroke-opacity: 0.9"/>
    <path d="M 818.068071 437.613304 
C 821.316132 437.613304 824.431598 436.322836 826.728325 434.026109 
C 829.025051 431.729383 830.315519 428.613917 830.315519 425.365855 
C 830.315519 422.117794 829.025051 419.002327 826.728325 416.705601 
C 824.431598 414.408875 821.316132 413.118407 818.068071 413.118407 
C 814.820009 413.118407 811.704543 414.408875 809.407817 416.705601 
C 807.11109 419.002327 805.820622 422.117794 805.820622 425.365855 
C 805.820622 428.613917 807.11109 431.729383 809.407817 434.026109 
C 811.704543 436.322836 814.820009 437.613304 818.068071 437.613304 
z
" clip-path="url(#p4d2c54049d)" style="fill: #f28e2b; fill-opacity: 0.9; stroke: #f28e2b; stroke-opacity: 0.9"/>
    <path d="M 878.208437 458.435348 
C 881.456499 458.435348 884.571965 457.144879 886.868692 454.848153 
C 889.165418 452.551427 890.455886 449.43596 890.455886 446.187899 
C 890.455886 442.939838 889.165418 439.824371 886.868692 437.527645 
C 884.571965 435.230919 881.456499 433.94045 878.208437 433.94045 
C 874.960376 433.94045 871.84491 435.230919 869.548183 437.527645 
C 867.251457 439.824371 865.960989 442.939838 865.960989 446.187899 
C 865.960989 449.43596 867.251457 452.551427 869.548183 454.848153 
C 871.84491 457.144879 874.960376 458.435348 878.208437 458.435348 
z
" clip-path="url(#p4d2c54049d)" style="fill: #f28e2b; fill-opacity: 0.9; stroke: #f28e2b; stroke-opacity: 0.9"/>
    <path d="M 523.198685 947.166397 
C 526.011588 947.166397 528.709661 946.048819 530.698685 944.059796 
C 532.687708 942.070772 533.805286 939.372699 533.805286 936.559796 
C 533.805286 933.746892 532.687708 931.048819 530.698685 929.059796 
C 528.709661 927.070772 526.011588 925.953194 523.198685 925.953194 
C 520.385781 925.953194 517.687708 927.070772 515.698685 929.059796 
C 513.709661 931.048819 512.592083 933.746892 512.592083 936.559796 
C 512.592083 939.372699 513.709661 942.070772 515.698685 944.059796 
C 517.687708 946.048819 520.385781 947.166397 523.198685 947.166397 
z
" clip-path="url(#p4d2c54049d)" style="fill: #4e79a7; fill-opacity: 0.9; stroke: #4e79a7; stroke-opacity: 0.9"/>
    <path d="M 612.04515 712.02639 
C 615.293211 712.02639 618.408678 710.735922 620.705404 708.439195 
C 623.00213 706.142469 624.292599 703.027003 624.292599 699.778941 
C 624.292599 696.53088 623.00213 693.415414 620.705404 691.118687 
C 618.408678 688.821961 615.293211 687.531493 612.04515 687.531493 
C 608.797088 687.531493 605.681622 688.821961 603.384896 691.118687 
C 601.08817 693.415414 599.797701 696.53088 599.797701 699.778941 
C 599.797701 703.027003 601.08817 706.142469 603.384896 708.439195 
C 605.681622 710.735922 608.797088 712.02639 612.04515 712.02639 
z
" clip-path="url(#p4d2c54049d)" style="fill: #4e79a7; fill-opacity: 0.9; stroke: #4e79a7; stroke-opacity: 0.9"/>
    <path d="M 601.375541 858.639121 
C 604.188445 858.639121 606.886518 857.521542 608.875541 855.532519 
C 610.864565 853.543496 611.982143 850.845423 611.982143 848.032519 
C 611.982143 845.219615 610.864565 842.521542 608.875541 840.532519 
C 606.886518 838.543496 604.188445 837.425917 601.375541 837.425917 
C 598.562638 837.425917 595.864565 838.543496 593.875541 840.532519 
C 591.886518 842.521542 590.76894 845.219615 590.76894 848.032519 
C 590.76894 850.845423 591.886518 853.543496 593.875541 855.532519 
C 595.864565 857.521542 598.562638 858.639121 601.375541 858.639121 
z
" clip-path="url(#p4d2c54049d)" style="fill: #4e79a7; fill-opacity: 0.9; stroke: #4e79a7; stroke-opacity: 0.9"/>
    <path d="M 229.04421 884.002588 
C 232.292271 884.002588 235.407738 882.71212 237.704464 880.415393 
C 240.00119 878.118667 241.291659 875.003201 241.291659 871.755139 
C 241.291659 868.507078 240.00119 865.391612 237.704464 863.094885 
C 235.407738 860.798159 232.292271 859.507691 229.04421 859.507691 
C 225.796149 859.507691 222.680682 860.798159 220.383956 863.094885 
C 218.08723 865.391612 216.796761 868.507078 216.796761 871.755139 
C 216.796761 875.003201 218.08723 878.118667 220.383956 880.415393 
C 222.680682 882.71212 225.796149 884.002588 229.04421 884.002588 
z
" clip-path="url(#p4d2c54049d)" style="fill: #4e79a7; fill-opacity: 0.9; stroke: #4e79a7; stroke-opacity: 0.9"/>
    <path d="M 421.474174 959.370238 
C 424.287078 959.370238 426.985151 958.25266 428.974174 956.263636 
C 430.963197 954.274613 432.080776 951.57654 432.080776 948.763636 
C 432.080776 945.950733 430.963197 943.25266 428.974174 941.263636 
C 426.985151 939.274613 424.287078 938.157035 421.474174 938.157035 
C 418.66127 938.157035 415.963197 939.274613 413.974174 941.263636 
C 411.985151 943.25266 410.867572 945.950733 410.867572 948.763636 
C 410.867572 951.57654 411.985151 954.274613 413.974174 956.263636 
C 415.963197 958.25266 418.66127 959.370238 421.474174 959.370238 
z
" clip-path="url(#p4d2c54049d)" style="fill: #4e79a7; fill-opacity: 0.9; stroke: #4e79a7; stroke-opacity: 0.9"/>
    <path d="M 238.493708 698.057428 
C 241.74177 698.057428 244.857236 696.76696 247.153962 694.470234 
C 249.450689 692.173507 250.741157 689.058041 250.741157 685.80998 
C 250.741157 682.561918 249.450689 679.446452 247.153962 677.149725 
C 244.857236 674.852999 241.74177 673.562531 238.493708 673.562531 
C 235.245647 673.562531 232.130181 674.852999 229.833454 677.149725 
C 227.536728 679.446452 226.24626 682.561918 226.24626 685.80998 
C 226.24626 689.058041 227.536728 692.173507 229.833454 694.470234 
C 232.130181 696.76696 235.245647 698.057428 238.493708 698.057428 
z
" clip-path="url(#p4d2c54049d)" style="fill: #4e79a7; fill-opacity: 0.9; stroke: #4e79a7; stroke-opacity: 0.9"/>
    <path d="M 646.083885 62.642965 
C 648.896789 62.642965 651.594862 61.525387 653.583885 59.536364 
C 655.572909 57.54734 656.690487 54.849267 656.690487 52.036364 
C 656.690487 49.22346 655.572909 46.525387 653.583885 44.536364 
C 651.594862 42.54734 648.896789 41.429762 646.083885 41.429762 
C 643.270982 41.429762 640.572909 42.54734 638.583885 44.536364 
C 636.594862 46.525387 635.477284 49.22346 635.477284 52.036364 
C 635.477284 54.849267 636.594862 57.54734 638.583885 59.536364 
C 640.572909 61.525387 643.270982 62.642965 646.083885 62.642965 
z
" clip-path="url(#p4d2c54049d)" style="fill: #e15759; fill-opacity: 0.9; stroke: #e15759; stroke-opacity: 0.9"/>
    <path d="M 681.347468 331.705337 
C 684.978911 331.705337 688.462108 330.262549 691.029926 327.694731 
C 693.597744 325.126913 695.040532 321.643716 695.040532 318.012273 
C 695.040532 314.38083 693.597744 310.897633 691.029926 308.329815 
C 688.462108 305.761997 684.978911 304.319209 681.347468 304.319209 
C 677.716025 304.319209 674.232828 305.761997 671.66501 308.329815 
C 669.097192 310.897633 667.654404 314.38083 667.654404 318.012273 
C 667.654404 321.643716 669.097192 325.126913 671.66501 327.694731 
C 674.232828 330.262549 677.716025 331.705337 681.347468 331.705337 
z
" clip-path="url(#p4d2c54049d)" style="fill: #e15759; fill-opacity: 0.9; stroke: #e15759; stroke-opacity: 0.9"/>
    <path d="M 344.90156 893.66706 
C 347.714464 893.66706 350.412537 892.549482 352.40156 890.560459 
C 354.390583 888.571436 355.508162 885.873362 355.508162 883.060459 
C 355.508162 880.247555 354.390583 877.549482 352.40156 875.560459 
C 350.412537 873.571436 347.714464 872.453857 344.90156 872.453857 
C 342.088656 872.453857 339.390583 873.571436 337.40156 875.560459 
C 335.412537 877.549482 334.294958 880.247555 334.294958 883.060459 
C 334.294958 885.873362 335.412537 888.571436 337.40156 890.560459 
C 339.390583 892.549482 342.088656 893.66706 344.90156 893.66706 
z
" clip-path="url(#p4d2c54049d)" style="fill: #4e79a7; fill-opacity: 0.9; stroke: #4e79a7; stroke-opacity: 0.9"/>
    <path d="M 1361.127273 650.320607 
C 1363.423999 650.320607 1365.626966 649.408108 1367.250997 647.784078 
C 1368.875028 646.160047 1369.787527 643.95708 1369.787527 641.660353 
C 1369.787527 639.363627 1368.875028 637.16066 1367.250997 635.536629 
C 1365.626966 633.912598 1363.423999 633.000099 1361.127273 633.000099 
C 1358.830547 633.000099 1356.627579 633.912598 1355.003548 635.536629 
C 1353.379518 637.16066 1352.467019 639.363627 1352.467019 641.660353 
C 1352.467019 643.95708 1353.379518 646.160047 1355.003548 647.784078 
C 1356.627579 649.408108 1358.830547 650.320607 1361.127273 650.320607 
z
" clip-path="url(#p4d2c54049d)" style="fill: #76b7b2; fill-opacity: 0.9; stroke: #76b7b2; stroke-opacity: 0.9"/>
    <path d="M 71.672727 953.077291 
C 74.485631 953.077291 77.183704 951.959713 79.172727 949.97069 
C 81.161751 947.981666 82.279329 945.283593 82.279329 942.47069 
C 82.279329 939.657786 81.161751 936.959713 79.172727 934.97069 
C 77.183704 932.981666 74.485631 931.864088 71.672727 931.864088 
C 68.859824 931.864088 66.161751 932.981666 64.172727 934.97069 
C 62.183704 936.959713 61.066126 939.657786 61.066126 942.47069 
C 61.066126 945.283593 62.183704 947.981666 64.172727 949.97069 
C 66.161751 951.959713 68.859824 953.077291 71.672727 953.077291 
z
" clip-path="url(#p4d2c54049d)" style="fill: #4e79a7; fill-opacity: 0.9; stroke: #4e79a7; stroke-opacity: 0.9"/>
    <path d="M 87.68389 625.626087 
C 90.496793 625.626087 93.194867 624.508509 95.18389 622.519486 
C 97.172913 620.530462 98.290492 617.832389 98.290492 615.019486 
C 98.290492 612.206582 97.172913 609.508509 95.18389 607.519486 
C 93.194867 605.530462 90.496793 604.412884 87.68389 604.412884 
C 84.870986 604.412884 82.172913 605.530462 80.18389 607.519486 
C 78.194867 609.508509 77.077288 612.206582 77.077288 615.019486 
C 77.077288 617.832389 78.194867 620.530462 80.18389 622.519486 
C 82.172913 624.508509 84.870986 625.626087 87.68389 625.626087 
z
" clip-path="url(#p4d2c54049d)" style="fill: #4e79a7; fill-opacity: 0.9; stroke: #4e79a7; stroke-opacity: 0.9"/>
    <path d="M 596.42683 335.582012 
C 599.674892 335.582012 602.790358 334.291543 605.087084 331.994817 
C 607.383811 329.698091 608.674279 326.582624 608.674279 323.334563 
C 608.674279 320.086502 607.383811 316.971035 605.087084 314.674309 
C 602.790358 312.377583 599.674892 311.087114 596.42683 311.087114 
C 593.178769 311.087114 590.063303 312.377583 587.766576 314.674309 
C 585.46985 316.971035 584.179382 320.086502 584.179382 323.334563 
C 584.179382 326.582624 585.46985 329.698091 587.766576 331.994817 
C 590.063303 334.291543 593.178769 335.582012 596.42683 335.582012 
z
" clip-path="url(#p4d2c54049d)" style="fill: #e15759; fill-opacity: 0.9; stroke: #e15759; stroke-opacity: 0.9"/>
   </g>
   <g id="text_1">
    <g clip-path="url(#p4d2c54049d)">
     <!-- Sovereign OS -->
     <g style="fill: #ffffff" transform="translate(425.380425 766.685198) scale(0.07 -0.07)">
      <defs>
       <path id="DejaVuSans-53" d="M 3425 4513 
L 3425 3897 
Q 3066 4069 2747 4153 
Q 2428 4238 2131 4238 
Q 1616 4238 1336 4038 
Q 1056 3838 1056 3469 
Q 1056 3159 1242 3001 
Q 1428 2844 1947 2747 
L 2328 2669 
Q 3034 2534 3370 2195 
Q 3706 1856 3706 1288 
Q 3706 609 3251 259 
Q 2797 -91 1919 -91 
Q 1588 -91 1214 -16 
Q 841 59 441 206 
L 441 856 
Q 825 641 1194 531 
Q 1563 422 1919 422 
Q 2459 422 2753 634 
Q 3047 847 3047 1241 
Q 3047 1584 2836 1778 
Q 2625 1972 2144 2069 
L 1759 2144 
Q 1053 2284 737 2584 
Q 422 2884 422 3419 
Q 422 4038 858 4394 
Q 1294 4750 2059 4750 
Q 2388 4750 2728 4690 
Q 3069 4631 3425 4513 
z
" transform="scale(0.015625)"/>
       <path id="DejaVuSans-6f" d="M 1959 3097 
Q 1497 3097 1228 2736 
Q 959 2375 959 1747 
Q 959 1119 1226 758 
Q 1494 397 1959 397 
Q 2419 397 2687 759 
Q 2956 1122 2956 1747 
Q 2956 2369 2687 2733 
Q 2419 3097 1959 3097 
z
M 1959 3584 
Q 2709 3584 3137 3096 
Q 3566 2609 3566 1747 
Q 3566 888 3137 398 
Q 2709 -91 1959 -91 
Q 1206 -91 779 398 
Q 353 888 353 1747 
Q 353 2609 779 3096 
Q 1206 3584 1959 3584 
z
" transform="scale(0.015625)"/>
       <path id="DejaVuSans-76" d="M 191 3500 
L 800 3500 
L 1894 563 
L 2988 3500 
L 3597 3500 
L 2284 0 
L 1503 0 
L 191 3500 
z
" transform="scale(0.015625)"/>
       <path id="DejaVuSans-65" d="M 3597 1894 
L 3597 1613 
L 953 1613 
Q 991 1019 1311 708 
Q 1631 397 2203 397 
Q 2534 397 2845 478 
Q 3156 559 3463 722 
L 3463 178 
Q 3153 47 2828 -22 
Q 2503 -91 2169 -91 
Q 1331 -91 842 396 
Q 353 884 353 1716 
Q 353 2575 817 3079 
Q 1281 3584 2069 3584 
Q 2775 3584 3186 3129 
Q 3597 2675 3597 1894 
z
M 3022 2063 
Q 3016 2534 2758 2815 
Q 2500 3097 2075 3097 
Q 1594 3097 1305 2825 
Q 1016 2553 972 2059 
L 3022 2063 
z
" transform="scale(0.015625)"/>
       <path id="DejaVuSans-72" d="M 2631 2963 
Q 2534 3019 2420 3045 
Q 2306 3072 2169 3072 
Q 1681 3072 1420 2755 
Q 1159 2438 1159 1844 
L 1159 0 
L 581 0 
L 581 3500 
L 1159 3500 
L 1159 2956 
Q 1341 3275 1631 3429 
Q 1922 3584 2338 3584 
Q 2397 3584 2469 3576 
Q 2541 3569 2628 3553 
L 2631 2963 
z
" transform="scale(0.015625)"/>
       <path id="DejaVuSans-69" d="M 603 3500 
L 1178 3500 
L 1178 0 
L 603 0 
L 603 3500 
z
M 603 4863 
L 1178 4863 
L 1178 4134 
L 603 4134 
L 603 4863 
z
" transform="scale(0.015625)"/>
       <path id="DejaVuSans-67" d="M 2906 1791 
Q 2906 2416 2648 2759 
Q 2391 3103 1925 3103 
Q 1463 3103 1205 2759 
Q 947 2416 947 1791 
Q 947 1169 1205 825 
Q 1463 481 1925 481 
Q 2391 481 2648 825 
Q 2906 1169 2906 1791 
z
M 3481 434 
Q 3481 -459 3084 -895 
Q 2688 -1331 1869 -1331 
Q 1566 -1331 1297 -1286 
Q 1028 -1241 775 -1147 
L 775 -588 
Q 1028 -725 1275 -790 
Q 1522 -856 1778 -856 
Q 2344 -856 2625 -561 
Q 2906 -266 2906 331 
L 2906 616 
Q 2728 306 2450 153 
Q 2172 0 1784 0 
Q 1141 0 747 490 
Q 353 981 353 1791 
Q 353 2603 747 3093 
Q 1141 3584 1784 3584 
Q 2172 3584 2450 3431 
Q 2728 3278 2906 2969 
L 2906 3500 
L 3481 3500 
L 3481 434 
z
" transform="scale(0.015625)"/>
       <path id="DejaVuSans-6e" d="M 3513 2113 
L 3513 0 
L 2938 0 
L 2938 2094 
Q 2938 2591 2744 2837 
Q 2550 3084 2163 3084 
Q 1697 3084 1428 2787 
Q 1159 2491 1159 1978 
L 1159 0 
L 581 0 
L 581 3500 
L 1159 3500 
L 1159 2956 
Q 1366 3272 1645 3428 
Q 1925 3584 2291 3584 
Q 2894 3584 3203 3211 
Q 3513 2838 3513 2113 
z
" transform="scale(0.015625)"/>
       <path id="DejaVuSans-20" transform="scale(0.015625)"/>
       <path id="DejaVuSans-4f" d="M 2522 4238 
Q 1834 4238 1429 3725 
Q 1025 3213 1025 2328 
Q 1025 1447 1429 934 
Q 1834 422 2522 422 
Q 3209 422 3611 934 
Q 4013 1447 4013 2328 
Q 4013 3213 3611 3725 
Q 3209 4238 2522 4238 
z
M 2522 4750 
Q 3503 4750 4090 4092 
Q 4678 3434 4678 2328 
Q 4678 1225 4090 567 
Q 3503 -91 2522 -91 
Q 1538 -91 948 565 
Q 359 1222 359 2328 
Q 359 3434 948 4092 
Q 1538 4750 2522 4750 
z
" transform="scale(0.015625)"/>
      </defs>
      <use xlink:href="#DejaVuSans-53"/>
      <use xlink:href="#DejaVuSans-6f" transform="translate(63.476562 0)"/>
      <use xlink:href="#DejaVuSans-76" transform="translate(124.658203 0)"/>
      <use xlink:href="#DejaVuSans-65" transform="translate(183.837891 0)"/>
      <use xlink:href="#DejaVuSans-72" transform="translate(245.361328 0)"/>
      <use xlink:href="#DejaVuSans-65" transform="translate(284.224609 0)"/>
      <use xlink:href="#DejaVuSans-69" transform="translate(345.748047 0)"/>
      <use xlink:href="#DejaVuSans-67" transform="translate(373.53125 0)"/>
      <use xlink:href="#DejaVuSans-6e" transform="translate(437.007812 0)"/>
      <use xlink:href="#DejaVuSans-20" transform="translate(500.386719 0)"/>
      <use xlink:href="#DejaVuSans-4f" transform="translate(532.173828 0)"/>
      <use xlink:href="#DejaVuSans-53" transform="translate(610.884766 0)"/>
     </g>
    </g>
   </g>
   <g id="text_2">
    <g clip-path="url(#p4d2c54049d)">
     <!-- Claude Code -->
     <g style="fill: #ffffff" transform="translate(612.127846 472.124832) scale(0.07 -0.07)">
      <defs>
       <path id="DejaVuSans-43" d="M 4122 4306 
L 4122 3641 
Q 3803 3938 3442 4084 
Q 3081 4231 2675 4231 
Q 1875 4231 1450 3742 
Q 1025 3253 1025 2328 
Q 1025 1406 1450 917 
Q 1875 428 2675 428 
Q 3081 428 3442 575 
Q 3803 722 4122 1019 
L 4122 359 
Q 3791 134 3420 21 
Q 3050 -91 2638 -91 
Q 1578 -91 968 557 
Q 359 1206 359 2328 
Q 359 3453 968 4101 
Q 1578 4750 2638 4750 
Q 3056 4750 3426 4639 
Q 3797 4528 4122 4306 
z
" transform="scale(0.015625)"/>
       <path id="DejaVuSans-6c" d="M 603 4863 
L 1178 4863 
L 1178 0 
L 603 0 
L 603 4863 
z
" transform="scale(0.015625)"/>
       <path id="DejaVuSans-61" d="M 2194 1759 
Q 1497 1759 1228 1600 
Q 959 1441 959 1056 
Q 959 750 1161 570 
Q 1363 391 1709 391 
Q 2188 391 2477 730 
Q 2766 1069 2766 1631 
L 2766 1759 
L 2194 1759 
z
M 3341 1997 
L 3341 0 
L 2766 0 
L 2766 531 
Q 2569 213 2275 61 
Q 1981 -91 1556 -91 
Q 1019 -91 701 211 
Q 384 513 384 1019 
Q 384 1609 779 1909 
Q 1175 2209 1959 2209 
L 2766 2209 
L 2766 2266 
Q 2766 2663 2505 2880 
Q 2244 3097 1772 3097 
Q 1472 3097 1187 3025 
Q 903 2953 641 2809 
L 641 3341 
Q 956 3463 1253 3523 
Q 1550 3584 1831 3584 
Q 2591 3584 2966 3190 
Q 3341 2797 3341 1997 
z
" transform="scale(0.015625)"/>
       <path id="DejaVuSans-75" d="M 544 1381 
L 544 3500 
L 1119 3500 
L 1119 1403 
Q 1119 906 1312 657 
Q 1506 409 1894 409 
Q 2359 409 2629 706 
Q 2900 1003 2900 1516 
L 2900 3500 
L 3475 3500 
L 3475 0 
L 2900 0 
L 2900 538 
Q 2691 219 2414 64 
Q 2138 -91 1772 -91 
Q 1169 -91 856 284 
Q 544 659 544 1381 
z
M 1991 3584 
L 1991 3584 
z
" transform="scale(0.015625)"/>
       <path id="DejaVuSans-64" d="M 2906 2969 
L 2906 4863 
L 3481 4863 
L 3481 0 
L 2906 0 
L 2906 525 
Q 2725 213 2448 61 
Q 2172 -91 1784 -91 
Q 1150 -91 751 415 
Q 353 922 353 1747 
Q 353 2572 751 3078 
Q 1150 3584 1784 3584 
Q 2172 3584 2448 3432 
Q 2725 3281 2906 2969 
z
M 947 1747 
Q 947 1113 1208 752 
Q 1469 391 1925 391 
Q 2381 391 2643 752 
Q 2906 1113 2906 1747 
Q 2906 2381 2643 2742 
Q 2381 3103 1925 3103 
Q 1469 3103 1208 2742 
Q 947 2381 947 1747 
z
" transform="scale(0.015625)"/>
      </defs>
      <use xlink:href="#DejaVuSans-43"/>
      <use xlink:href="#DejaVuSans-6c" transform="translate(69.824219 0)"/>
      <use xlink:href="#DejaVuSans-61" transform="translate(97.607422 0)"/>
      <use xlink:href="#DejaVuSans-75" transform="translate(158.886719 0)"/>
      <use xlink:href="#DejaVuSans-64" transform="translate(222.265625 0)"/>
      <use xlink:href="#DejaVuSans-65" transform="translate(285.742188 0)"/>
      <use xlink:href="#DejaVuSans-20" transform="translate(347.265625 0)"/>
      <use xlink:href="#DejaVuSans-43" transform="translate(379.052734 0)"/>
      <use xlink:href="#DejaVuSans-6f" transform="translate(448.876953 0)"/>
      <use xlink:href="#DejaVuSans-64" transform="translate(510.058594 0)"/>
      <use xlink:href="#DejaVuSans-65" transform="translate(573.535156 0)"/>
     </g>
    </g>
   </g>
   <g id="text_3">
    <g clip-path="url(#p4d2c54049d)">
     <!-- Ollama -->
     <g style="fill: #ffffff" transform="translate(722.947194 563.604212) scale(0.07 -0.07)">
      <defs>
       <path id="DejaVuSans-6d" d="M 3328 2828 
Q 3544 3216 3844 3400 
Q 4144 3584 4550 3584 
Q 5097 3584 5394 3201 
Q 5691 2819 5691 2113 
L 5691 0 
L 5113 0 
L 5113 2094 
Q 5113 2597 4934 2840 
Q 4756 3084 4391 3084 
Q 3944 3084 3684 2787 
Q 3425 2491 3425 1978 
L 3425 0 
L 2847 0 
L 2847 2094 
Q 2847 2600 2669 2842 
Q 2491 3084 2119 3084 
Q 1678 3084 1418 2786 
Q 1159 2488 1159 1978 
L 1159 0 
L 581 0 
L 581 3500 
L 1159 3500 
L 1159 2956 
Q 1356 3278 1631 3431 
Q 1906 3584 2284 3584 
Q 2666 3584 2933 3390 
Q 3200 3197 3328 2828 
z
" transform="scale(0.015625)"/>
      </defs>
      <use xlink:href="#DejaVuSans-4f"/>
      <use xlink:href="#DejaVuSans-6c" transform="translate(78.710938 0)"/>
      <use xlink:href="#DejaVuSans-6c" transform="translate(106.494141 0)"/>
      <use xlink:href="#DejaVuSans-61" transform="translate(134.277344 0)"/>
      <use xlink:href="#DejaVuSans-6d" transform="translate(195.556641 0)"/>
      <use xlink:href="#DejaVuSans-61" transform="translate(292.96875 0)"/>
     </g>
    </g>
   </g>
   <g id="text_4">
    <g clip-path="url(#p4d2c54049d)">
     <!-- ollama-crew -->
     <g style="fill: #ffffff" transform="translate(780.120275 564.582382) scale(0.07 -0.07)">
      <defs>
       <path id="DejaVuSans-2d" d="M 313 2009 
L 1997 2009 
L 1997 1497 
L 313 1497 
L 313 2009 
z
" transform="scale(0.015625)"/>
       <path id="DejaVuSans-63" d="M 3122 3366 
L 3122 2828 
Q 2878 2963 2633 3030 
Q 2388 3097 2138 3097 
Q 1578 3097 1268 2742 
Q 959 2388 959 1747 
Q 959 1106 1268 751 
Q 1578 397 2138 397 
Q 2388 397 2633 464 
Q 2878 531 3122 666 
L 3122 134 
Q 2881 22 2623 -34 
Q 2366 -91 2075 -91 
Q 1284 -91 818 406 
Q 353 903 353 1747 
Q 353 2603 823 3093 
Q 1294 3584 2113 3584 
Q 2378 3584 2631 3529 
Q 2884 3475 3122 3366 
z
" transform="scale(0.015625)"/>
       <path id="DejaVuSans-77" d="M 269 3500 
L 844 3500 
L 1563 769 
L 2278 3500 
L 2956 3500 
L 3675 769 
L 4391 3500 
L 4966 3500 
L 4050 0 
L 3372 0 
L 2619 2869 
L 1863 0 
L 1184 0 
L 269 3500 
z
" transform="scale(0.015625)"/>
      </defs>
      <use xlink:href="#DejaVuSans-6f"/>
      <use xlink:href="#DejaVuSans-6c" transform="translate(61.181641 0)"/>
      <use xlink:href="#DejaVuSans-6c" transform="translate(88.964844 0)"/>
      <use xlink:href="#DejaVuSans-61" transform="translate(116.748047 0)"/>
      <use xlink:href="#DejaVuSans-6d" transform="translate(178.027344 0)"/>
      <use xlink:href="#DejaVuSans-61" transform="translate(275.439453 0)"/>
      <use xlink:href="#DejaVuSans-2d" transform="translate(336.71875 0)"/>
      <use xlink:href="#DejaVuSans-63" transform="translate(372.802734 0)"/>
      <use xlink:href="#DejaVuSans-72" transform="translate(427.783203 0)"/>
      <use xlink:href="#DejaVuSans-65" transform="translate(466.646484 0)"/>
      <use xlink:href="#DejaVuSans-77" transform="translate(528.169922 0)"/>
     </g>
    </g>
   </g>
   <g id="text_5">
    <g clip-path="url(#p4d2c54049d)">
     <!-- Qdrant -->
     <g style="fill: #ffffff" transform="translate(748.326277 348.731589) scale(0.07 -0.07)">
      <defs>
       <path id="DejaVuSans-51" d="M 2522 4238 
Q 1834 4238 1429 3725 
Q 1025 3213 1025 2328 
Q 1025 1447 1429 934 
Q 1834 422 2522 422 
Q 3209 422 3611 934 
Q 4013 1447 4013 2328 
Q 4013 3213 3611 3725 
Q 3209 4238 2522 4238 
z
M 3406 84 
L 4238 -825 
L 3475 -825 
L 2784 -78 
Q 2681 -84 2626 -87 
Q 2572 -91 2522 -91 
Q 1538 -91 948 567 
Q 359 1225 359 2328 
Q 359 3434 948 4092 
Q 1538 4750 2522 4750 
Q 3503 4750 4090 4092 
Q 4678 3434 4678 2328 
Q 4678 1516 4351 937 
Q 4025 359 3406 84 
z
" transform="scale(0.015625)"/>
       <path id="DejaVuSans-74" d="M 1172 4494 
L 1172 3500 
L 2356 3500 
L 2356 3053 
L 1172 3053 
L 1172 1153 
Q 1172 725 1289 603 
Q 1406 481 1766 481 
L 2356 481 
L 2356 0 
L 1766 0 
Q 1100 0 847 248 
Q 594 497 594 1153 
L 594 3053 
L 172 3053 
L 172 3500 
L 594 3500 
L 594 4494 
L 1172 4494 
z
" transform="scale(0.015625)"/>
      </defs>
      <use xlink:href="#DejaVuSans-51"/>
      <use xlink:href="#DejaVuSans-64" transform="translate(78.710938 0)"/>
      <use xlink:href="#DejaVuSans-72" transform="translate(142.1875 0)"/>
      <use xlink:href="#DejaVuSans-61" transform="translate(183.300781 0)"/>
      <use xlink:href="#DejaVuSans-6e" transform="translate(244.580078 0)"/>
      <use xlink:href="#DejaVuSans-74" transform="translate(307.958984 0)"/>
     </g>
    </g>
   </g>
   <g id="text_6">
    <g clip-path="url(#p4d2c54049d)">
     <!-- n8n -->
     <g style="fill: #ffffff" transform="translate(658.127619 234.602783) scale(0.07 -0.07)">
      <defs>
       <path id="DejaVuSans-38" d="M 2034 2216 
Q 1584 2216 1326 1975 
Q 1069 1734 1069 1313 
Q 1069 891 1326 650 
Q 1584 409 2034 409 
Q 2484 409 2743 651 
Q 3003 894 3003 1313 
Q 3003 1734 2745 1975 
Q 2488 2216 2034 2216 
z
M 1403 2484 
Q 997 2584 770 2862 
Q 544 3141 544 3541 
Q 544 4100 942 4425 
Q 1341 4750 2034 4750 
Q 2731 4750 3128 4425 
Q 3525 4100 3525 3541 
Q 3525 3141 3298 2862 
Q 3072 2584 2669 2484 
Q 3125 2378 3379 2068 
Q 3634 1759 3634 1313 
Q 3634 634 3220 271 
Q 2806 -91 2034 -91 
Q 1263 -91 848 271 
Q 434 634 434 1313 
Q 434 1759 690 2068 
Q 947 2378 1403 2484 
z
M 1172 3481 
Q 1172 3119 1398 2916 
Q 1625 2713 2034 2713 
Q 2441 2713 2670 2916 
Q 2900 3119 2900 3481 
Q 2900 3844 2670 4047 
Q 2441 4250 2034 4250 
Q 1625 4250 1398 4047 
Q 1172 3844 1172 3481 
z
" transform="scale(0.015625)"/>
      </defs>
      <use xlink:href="#DejaVuSans-6e"/>
      <use xlink:href="#DejaVuSans-38" transform="translate(63.378906 0)"/>
      <use xlink:href="#DejaVuSans-6e" transform="translate(127.001953 0)"/>
     </g>
    </g>
   </g>
   <g id="text_7">
    <g clip-path="url(#p4d2c54049d)">
     <!-- qwen2.5-coder -->
     <g style="fill: #ffffff" transform="translate(853.757156 640.533566) scale(0.07 -0.07)">
      <defs>
       <path id="DejaVuSans-71" d="M 947 1747 
Q 947 1113 1208 752 
Q 1469 391 1925 391 
Q 2381 391 2643 752 
Q 2906 1113 2906 1747 
Q 2906 2381 2643 2742 
Q 2381 3103 1925 3103 
Q 1469 3103 1208 2742 
Q 947 2381 947 1747 
z
M 2906 525 
Q 2725 213 2448 61 
Q 2172 -91 1784 -91 
Q 1150 -91 751 415 
Q 353 922 353 1747 
Q 353 2572 751 3078 
Q 1150 3584 1784 3584 
Q 2172 3584 2448 3432 
Q 2725 3281 2906 2969 
L 2906 3500 
L 3481 3500 
L 3481 -1331 
L 2906 -1331 
L 2906 525 
z
" transform="scale(0.015625)"/>
       <path id="DejaVuSans-32" d="M 1228 531 
L 3431 531 
L 3431 0 
L 469 0 
L 469 531 
Q 828 903 1448 1529 
Q 2069 2156 2228 2338 
Q 2531 2678 2651 2914 
Q 2772 3150 2772 3378 
Q 2772 3750 2511 3984 
Q 2250 4219 1831 4219 
Q 1534 4219 1204 4116 
Q 875 4013 500 3803 
L 500 4441 
Q 881 4594 1212 4672 
Q 1544 4750 1819 4750 
Q 2544 4750 2975 4387 
Q 3406 4025 3406 3419 
Q 3406 3131 3298 2873 
Q 3191 2616 2906 2266 
Q 2828 2175 2409 1742 
Q 1991 1309 1228 531 
z
" transform="scale(0.015625)"/>
       <path id="DejaVuSans-2e" d="M 684 794 
L 1344 794 
L 1344 0 
L 684 0 
L 684 794 
z
" transform="scale(0.015625)"/>
       <path id="DejaVuSans-35" d="M 691 4666 
L 3169 4666 
L 3169 4134 
L 1269 4134 
L 1269 2991 
Q 1406 3038 1543 3061 
Q 1681 3084 1819 3084 
Q 2600 3084 3056 2656 
Q 3513 2228 3513 1497 
Q 3513 744 3044 326 
Q 2575 -91 1722 -91 
Q 1428 -91 1123 -41 
Q 819 9 494 109 
L 494 744 
Q 775 591 1075 516 
Q 1375 441 1709 441 
Q 2250 441 2565 725 
Q 2881 1009 2881 1497 
Q 2881 1984 2565 2268 
Q 2250 2553 1709 2553 
Q 1456 2553 1204 2497 
Q 953 2441 691 2322 
L 691 4666 
z
" transform="scale(0.015625)"/>
      </defs>
      <use xlink:href="#DejaVuSans-71"/>
      <use xlink:href="#DejaVuSans-77" transform="translate(63.476562 0)"/>
      <use xlink:href="#DejaVuSans-65" transform="translate(145.263672 0)"/>
      <use xlink:href="#DejaVuSans-6e" transform="translate(206.787109 0)"/>
      <use xlink:href="#DejaVuSans-32" transform="translate(270.166016 0)"/>
      <use xlink:href="#DejaVuSans-2e" transform="translate(333.789062 0)"/>
      <use xlink:href="#DejaVuSans-35" transform="translate(365.576172 0)"/>
      <use xlink:href="#DejaVuSans-2d" transform="translate(429.199219 0)"/>
      <use xlink:href="#DejaVuSans-63" transform="translate(465.283203 0)"/>
      <use xlink:href="#DejaVuSans-6f" transform="translate(520.263672 0)"/>
      <use xlink:href="#DejaVuSans-64" transform="translate(581.445312 0)"/>
      <use xlink:href="#DejaVuSans-65" transform="translate(644.921875 0)"/>
      <use xlink:href="#DejaVuSans-72" transform="translate(706.445312 0)"/>
     </g>
    </g>
   </g>
   <g id="text_8">
    <g clip-path="url(#p4d2c54049d)">
     <!-- gemma4 -->
     <g style="fill: #ffffff" transform="translate(545.879713 608.569155) scale(0.07 -0.07)">
      <defs>
       <path id="DejaVuSans-34" d="M 2419 4116 
L 825 1625 
L 2419 1625 
L 2419 4116 
z
M 2253 4666 
L 3047 4666 
L 3047 1625 
L 3713 1625 
L 3713 1100 
L 3047 1100 
L 3047 0 
L 2419 0 
L 2419 1100 
L 313 1100 
L 313 1709 
L 2253 4666 
z
" transform="scale(0.015625)"/>
      </defs>
      <use xlink:href="#DejaVuSans-67"/>
      <use xlink:href="#DejaVuSans-65" transform="translate(63.476562 0)"/>
      <use xlink:href="#DejaVuSans-6d" transform="translate(125 0)"/>
      <use xlink:href="#DejaVuSans-6d" transform="translate(222.412109 0)"/>
      <use xlink:href="#DejaVuSans-61" transform="translate(319.824219 0)"/>
      <use xlink:href="#DejaVuSans-34" transform="translate(381.103516 0)"/>
     </g>
    </g>
   </g>
   <g id="text_9">
    <g clip-path="url(#p4d2c54049d)">
     <!-- nomic-embed-text -->
     <g style="fill: #ffffff" transform="translate(785.808461 427.297418) scale(0.07 -0.07)">
      <defs>
       <path id="DejaVuSans-62" d="M 3116 1747 
Q 3116 2381 2855 2742 
Q 2594 3103 2138 3103 
Q 1681 3103 1420 2742 
Q 1159 2381 1159 1747 
Q 1159 1113 1420 752 
Q 1681 391 2138 391 
Q 2594 391 2855 752 
Q 3116 1113 3116 1747 
z
M 1159 2969 
Q 1341 3281 1617 3432 
Q 1894 3584 2278 3584 
Q 2916 3584 3314 3078 
Q 3713 2572 3713 1747 
Q 3713 922 3314 415 
Q 2916 -91 2278 -91 
Q 1894 -91 1617 61 
Q 1341 213 1159 525 
L 1159 0 
L 581 0 
L 581 4863 
L 1159 4863 
L 1159 2969 
z
" transform="scale(0.015625)"/>
       <path id="DejaVuSans-78" d="M 3513 3500 
L 2247 1797 
L 3578 0 
L 2900 0 
L 1881 1375 
L 863 0 
L 184 0 
L 1544 1831 
L 300 3500 
L 978 3500 
L 1906 2253 
L 2834 3500 
L 3513 3500 
z
" transform="scale(0.015625)"/>
      </defs>
      <use xlink:href="#DejaVuSans-6e"/>
      <use xlink:href="#DejaVuSans-6f" transform="translate(63.378906 0)"/>
      <use xlink:href="#DejaVuSans-6d" transform="translate(124.560547 0)"/>
      <use xlink:href="#DejaVuSans-69" transform="translate(221.972656 0)"/>
      <use xlink:href="#DejaVuSans-63" transform="translate(249.755859 0)"/>
      <use xlink:href="#DejaVuSans-2d" transform="translate(304.736328 0)"/>
      <use xlink:href="#DejaVuSans-65" transform="translate(340.820312 0)"/>
      <use xlink:href="#DejaVuSans-6d" transform="translate(402.34375 0)"/>
      <use xlink:href="#DejaVuSans-62" transform="translate(499.755859 0)"/>
      <use xlink:href="#DejaVuSans-65" transform="translate(563.232422 0)"/>
      <use xlink:href="#DejaVuSans-64" transform="translate(624.755859 0)"/>
      <use xlink:href="#DejaVuSans-2d" transform="translate(688.232422 0)"/>
      <use xlink:href="#DejaVuSans-74" transform="translate(724.316406 0)"/>
      <use xlink:href="#DejaVuSans-65" transform="translate(763.525391 0)"/>
      <use xlink:href="#DejaVuSans-78" transform="translate(823.298828 0)"/>
      <use xlink:href="#DejaVuSans-74" transform="translate(882.478516 0)"/>
     </g>
    </g>
   </g>
   <g id="text_10">
    <g clip-path="url(#p4d2c54049d)">
     <!-- qdrant-rag MCP -->
     <g style="fill: #ffffff" transform="translate(850.835703 448.119462) scale(0.07 -0.07)">
      <defs>
       <path id="DejaVuSans-4d" d="M 628 4666 
L 1569 4666 
L 2759 1491 
L 3956 4666 
L 4897 4666 
L 4897 0 
L 4281 0 
L 4281 4097 
L 3078 897 
L 2444 897 
L 1241 4097 
L 1241 0 
L 628 0 
L 628 4666 
z
" transform="scale(0.015625)"/>
       <path id="DejaVuSans-50" d="M 1259 4147 
L 1259 2394 
L 2053 2394 
Q 2494 2394 2734 2622 
Q 2975 2850 2975 3272 
Q 2975 3691 2734 3919 
Q 2494 4147 2053 4147 
L 1259 4147 
z
M 628 4666 
L 2053 4666 
Q 2838 4666 3239 4311 
Q 3641 3956 3641 3272 
Q 3641 2581 3239 2228 
Q 2838 1875 2053 1875 
L 1259 1875 
L 1259 0 
L 628 0 
L 628 4666 
z
" transform="scale(0.015625)"/>
      </defs>
      <use xlink:href="#DejaVuSans-71"/>
      <use xlink:href="#DejaVuSans-64" transform="translate(63.476562 0)"/>
      <use xlink:href="#DejaVuSans-72" transform="translate(126.953125 0)"/>
      <use xlink:href="#DejaVuSans-61" transform="translate(168.066406 0)"/>
      <use xlink:href="#DejaVuSans-6e" transform="translate(229.345703 0)"/>
      <use xlink:href="#DejaVuSans-74" transform="translate(292.724609 0)"/>
      <use xlink:href="#DejaVuSans-2d" transform="translate(331.933594 0)"/>
      <use xlink:href="#DejaVuSans-72" transform="translate(368.017578 0)"/>
      <use xlink:href="#DejaVuSans-61" transform="translate(409.130859 0)"/>
      <use xlink:href="#DejaVuSans-67" transform="translate(470.410156 0)"/>
      <use xlink:href="#DejaVuSans-20" transform="translate(533.886719 0)"/>
      <use xlink:href="#DejaVuSans-4d" transform="translate(565.673828 0)"/>
      <use xlink:href="#DejaVuSans-43" transform="translate(651.953125 0)"/>
      <use xlink:href="#DejaVuSans-50" transform="translate(721.777344 0)"/>
     </g>
    </g>
   </g>
   <g id="text_11">
    <g clip-path="url(#p4d2c54049d)">
     <!-- Polymarket -->
     <g style="fill: #ffffff" transform="translate(503.611263 938.491358) scale(0.07 -0.07)">
      <defs>
       <path id="DejaVuSans-79" d="M 2059 -325 
Q 1816 -950 1584 -1140 
Q 1353 -1331 966 -1331 
L 506 -1331 
L 506 -850 
L 844 -850 
Q 1081 -850 1212 -737 
Q 1344 -625 1503 -206 
L 1606 56 
L 191 3500 
L 800 3500 
L 1894 763 
L 2988 3500 
L 3597 3500 
L 2059 -325 
z
" transform="scale(0.015625)"/>
       <path id="DejaVuSans-6b" d="M 581 4863 
L 1159 4863 
L 1159 1991 
L 2875 3500 
L 3609 3500 
L 1753 1863 
L 3688 0 
L 2938 0 
L 1159 1709 
L 1159 0 
L 581 0 
L 581 4863 
z
" transform="scale(0.015625)"/>
      </defs>
      <use xlink:href="#DejaVuSans-50"/>
      <use xlink:href="#DejaVuSans-6f" transform="translate(56.677734 0)"/>
      <use xlink:href="#DejaVuSans-6c" transform="translate(117.859375 0)"/>
      <use xlink:href="#DejaVuSans-79" transform="translate(145.642578 0)"/>
      <use xlink:href="#DejaVuSans-6d" transform="translate(204.822266 0)"/>
      <use xlink:href="#DejaVuSans-61" transform="translate(302.234375 0)"/>
      <use xlink:href="#DejaVuSans-72" transform="translate(363.513672 0)"/>
      <use xlink:href="#DejaVuSans-6b" transform="translate(404.626953 0)"/>
      <use xlink:href="#DejaVuSans-65" transform="translate(458.912109 0)"/>
      <use xlink:href="#DejaVuSans-74" transform="translate(520.435547 0)"/>
     </g>
    </g>
   </g>
   <g id="text_12">
    <g clip-path="url(#p4d2c54049d)">
     <!-- PantryAI -->
     <g style="fill: #ffffff" transform="translate(597.420072 701.710504) scale(0.07 -0.07)">
      <defs>
       <path id="DejaVuSans-41" d="M 2188 4044 
L 1331 1722 
L 3047 1722 
L 2188 4044 
z
M 1831 4666 
L 2547 4666 
L 4325 0 
L 3669 0 
L 3244 1197 
L 1141 1197 
L 716 0 
L 50 0 
L 1831 4666 
z
" transform="scale(0.015625)"/>
       <path id="DejaVuSans-49" d="M 628 4666 
L 1259 4666 
L 1259 0 
L 628 0 
L 628 4666 
z
" transform="scale(0.015625)"/>
      </defs>
      <use xlink:href="#DejaVuSans-50"/>
      <use xlink:href="#DejaVuSans-61" transform="translate(55.802734 0)"/>
      <use xlink:href="#DejaVuSans-6e" transform="translate(117.082031 0)"/>
      <use xlink:href="#DejaVuSans-74" transform="translate(180.460938 0)"/>
      <use xlink:href="#DejaVuSans-72" transform="translate(219.669922 0)"/>
      <use xlink:href="#DejaVuSans-79" transform="translate(260.783203 0)"/>
      <use xlink:href="#DejaVuSans-41" transform="translate(319.962891 0)"/>
      <use xlink:href="#DejaVuSans-49" transform="translate(388.371094 0)"/>
     </g>
    </g>
   </g>
   <g id="text_13">
    <g clip-path="url(#p4d2c54049d)">
     <!-- StonyClaw Castle -->
     <g style="fill: #ffffff" transform="translate(570.904213 849.964082) scale(0.07 -0.07)">
      <defs>
       <path id="DejaVuSans-73" d="M 2834 3397 
L 2834 2853 
Q 2591 2978 2328 3040 
Q 2066 3103 1784 3103 
Q 1356 3103 1142 2972 
Q 928 2841 928 2578 
Q 928 2378 1081 2264 
Q 1234 2150 1697 2047 
L 1894 2003 
Q 2506 1872 2764 1633 
Q 3022 1394 3022 966 
Q 3022 478 2636 193 
Q 2250 -91 1575 -91 
Q 1294 -91 989 -36 
Q 684 19 347 128 
L 347 722 
Q 666 556 975 473 
Q 1284 391 1588 391 
Q 1994 391 2212 530 
Q 2431 669 2431 922 
Q 2431 1156 2273 1281 
Q 2116 1406 1581 1522 
L 1381 1569 
Q 847 1681 609 1914 
Q 372 2147 372 2553 
Q 372 3047 722 3315 
Q 1072 3584 1716 3584 
Q 2034 3584 2315 3537 
Q 2597 3491 2834 3397 
z
" transform="scale(0.015625)"/>
      </defs>
      <use xlink:href="#DejaVuSans-53"/>
      <use xlink:href="#DejaVuSans-74" transform="translate(63.476562 0)"/>
      <use xlink:href="#DejaVuSans-6f" transform="translate(102.685547 0)"/>
      <use xlink:href="#DejaVuSans-6e" transform="translate(163.867188 0)"/>
      <use xlink:href="#DejaVuSans-79" transform="translate(227.246094 0)"/>
      <use xlink:href="#DejaVuSans-43" transform="translate(286.425781 0)"/>
      <use xlink:href="#DejaVuSans-6c" transform="translate(356.25 0)"/>
      <use xlink:href="#DejaVuSans-61" transform="translate(384.033203 0)"/>
      <use xlink:href="#DejaVuSans-77" transform="translate(445.3125 0)"/>
      <use xlink:href="#DejaVuSans-20" transform="translate(527.099609 0)"/>
      <use xlink:href="#DejaVuSans-43" transform="translate(558.886719 0)"/>
      <use xlink:href="#DejaVuSans-61" transform="translate(628.710938 0)"/>
      <use xlink:href="#DejaVuSans-73" transform="translate(689.990234 0)"/>
      <use xlink:href="#DejaVuSans-74" transform="translate(742.089844 0)"/>
      <use xlink:href="#DejaVuSans-6c" transform="translate(781.298828 0)"/>
      <use xlink:href="#DejaVuSans-65" transform="translate(809.082031 0)"/>
     </g>
    </g>
   </g>
   <g id="text_14">
    <g clip-path="url(#p4d2c54049d)">
     <!-- Magic Mirror -->
     <g style="fill: #ffffff" transform="translate(207.338194 873.686702) scale(0.07 -0.07)">
      <use xlink:href="#DejaVuSans-4d"/>
      <use xlink:href="#DejaVuSans-61" transform="translate(86.279297 0)"/>
      <use xlink:href="#DejaVuSans-67" transform="translate(147.558594 0)"/>
      <use xlink:href="#DejaVuSans-69" transform="translate(211.035156 0)"/>
      <use xlink:href="#DejaVuSans-63" transform="translate(238.818359 0)"/>
      <use xlink:href="#DejaVuSans-20" transform="translate(293.798828 0)"/>
      <use xlink:href="#DejaVuSans-4d" transform="translate(325.585938 0)"/>
      <use xlink:href="#DejaVuSans-69" transform="translate(411.865234 0)"/>
      <use xlink:href="#DejaVuSans-72" transform="translate(439.648438 0)"/>
      <use xlink:href="#DejaVuSans-72" transform="translate(479.011719 0)"/>
      <use xlink:href="#DejaVuSans-6f" transform="translate(517.875 0)"/>
      <use xlink:href="#DejaVuSans-72" transform="translate(579.056641 0)"/>
     </g>
    </g>
   </g>
   <g id="text_15">
    <g clip-path="url(#p4d2c54049d)">
     <!-- Finance App -->
     <g style="fill: #ffffff" transform="translate(400.132924 950.695199) scale(0.07 -0.07)">
      <defs>
       <path id="DejaVuSans-46" d="M 628 4666 
L 3309 4666 
L 3309 4134 
L 1259 4134 
L 1259 2759 
L 3109 2759 
L 3109 2228 
L 1259 2228 
L 1259 0 
L 628 0 
L 628 4666 
z
" transform="scale(0.015625)"/>
       <path id="DejaVuSans-70" d="M 1159 525 
L 1159 -1331 
L 581 -1331 
L 581 3500 
L 1159 3500 
L 1159 2969 
Q 1341 3281 1617 3432 
Q 1894 3584 2278 3584 
Q 2916 3584 3314 3078 
Q 3713 2572 3713 1747 
Q 3713 922 3314 415 
Q 2916 -91 2278 -91 
Q 1894 -91 1617 61 
Q 1341 213 1159 525 
z
M 3116 1747 
Q 3116 2381 2855 2742 
Q 2594 3103 2138 3103 
Q 1681 3103 1420 2742 
Q 1159 2381 1159 1747 
Q 1159 1113 1420 752 
Q 1681 391 2138 391 
Q 2594 391 2855 752 
Q 3116 1113 3116 1747 
z
" transform="scale(0.015625)"/>
      </defs>
      <use xlink:href="#DejaVuSans-46"/>
      <use xlink:href="#DejaVuSans-69" transform="translate(50.269531 0)"/>
      <use xlink:href="#DejaVuSans-6e" transform="translate(78.052734 0)"/>
      <use xlink:href="#DejaVuSans-61" transform="translate(141.431641 0)"/>
      <use xlink:href="#DejaVuSans-6e" transform="translate(202.710938 0)"/>
      <use xlink:href="#DejaVuSans-63" transform="translate(266.089844 0)"/>
      <use xlink:href="#DejaVuSans-65" transform="translate(321.070312 0)"/>
      <use xlink:href="#DejaVuSans-20" transform="translate(382.59375 0)"/>
      <use xlink:href="#DejaVuSans-41" transform="translate(414.380859 0)"/>
      <use xlink:href="#DejaVuSans-70" transform="translate(482.789062 0)"/>
      <use xlink:href="#DejaVuSans-70" transform="translate(546.265625 0)"/>
     </g>
    </g>
   </g>
   <g id="text_16">
    <g clip-path="url(#p4d2c54049d)">
     <!-- Quake Legacy -->
     <g style="fill: #ffffff" transform="translate(213.80449 687.741542) scale(0.07 -0.07)">
      <defs>
       <path id="DejaVuSans-4c" d="M 628 4666 
L 1259 4666 
L 1259 531 
L 3531 531 
L 3531 0 
L 628 0 
L 628 4666 
z
" transform="scale(0.015625)"/>
      </defs>
      <use xlink:href="#DejaVuSans-51"/>
      <use xlink:href="#DejaVuSans-75" transform="translate(78.710938 0)"/>
      <use xlink:href="#DejaVuSans-61" transform="translate(142.089844 0)"/>
      <use xlink:href="#DejaVuSans-6b" transform="translate(203.369141 0)"/>
      <use xlink:href="#DejaVuSans-65" transform="translate(257.654297 0)"/>
      <use xlink:href="#DejaVuSans-20" transform="translate(319.177734 0)"/>
      <use xlink:href="#DejaVuSans-4c" transform="translate(350.964844 0)"/>
      <use xlink:href="#DejaVuSans-65" transform="translate(404.927734 0)"/>
      <use xlink:href="#DejaVuSans-67" transform="translate(466.451172 0)"/>
      <use xlink:href="#DejaVuSans-61" transform="translate(529.927734 0)"/>
      <use xlink:href="#DejaVuSans-63" transform="translate(591.207031 0)"/>
      <use xlink:href="#DejaVuSans-79" transform="translate(646.1875 0)"/>
     </g>
    </g>
   </g>
   <g id="text_17">
    <g clip-path="url(#p4d2c54049d)">
     <!-- Obsidian Vault -->
     <g style="fill: #ffffff" transform="translate(620.811151 53.967926) scale(0.07 -0.07)">
      <defs>
       <path id="DejaVuSans-56" d="M 1831 0 
L 50 4666 
L 709 4666 
L 2188 738 
L 3669 4666 
L 4325 4666 
L 2547 0 
L 1831 0 
z
" transform="scale(0.015625)"/>
      </defs>
      <use xlink:href="#DejaVuSans-4f"/>
      <use xlink:href="#DejaVuSans-62" transform="translate(78.710938 0)"/>
      <use xlink:href="#DejaVuSans-73" transform="translate(142.1875 0)"/>
      <use xlink:href="#DejaVuSans-69" transform="translate(194.287109 0)"/>
      <use xlink:href="#DejaVuSans-64" transform="translate(222.070312 0)"/>
      <use xlink:href="#DejaVuSans-69" transform="translate(285.546875 0)"/>
      <use xlink:href="#DejaVuSans-61" transform="translate(313.330078 0)"/>
      <use xlink:href="#DejaVuSans-6e" transform="translate(374.609375 0)"/>
      <use xlink:href="#DejaVuSans-20" transform="translate(437.988281 0)"/>
      <use xlink:href="#DejaVuSans-56" transform="translate(469.775391 0)"/>
      <use xlink:href="#DejaVuSans-61" transform="translate(530.433594 0)"/>
      <use xlink:href="#DejaVuSans-75" transform="translate(591.712891 0)"/>
      <use xlink:href="#DejaVuSans-6c" transform="translate(655.091797 0)"/>
      <use xlink:href="#DejaVuSans-74" transform="translate(682.875 0)"/>
     </g>
    </g>
   </g>
   <g id="text_18">
    <g clip-path="url(#p4d2c54049d)">
     <!-- RuFlo Memory -->
     <g style="fill: #ffffff" transform="translate(656.380984 319.943835) scale(0.07 -0.07)">
      <defs>
       <path id="DejaVuSans-52" d="M 2841 2188 
Q 3044 2119 3236 1894 
Q 3428 1669 3622 1275 
L 4263 0 
L 3584 0 
L 2988 1197 
Q 2756 1666 2539 1819 
Q 2322 1972 1947 1972 
L 1259 1972 
L 1259 0 
L 628 0 
L 628 4666 
L 2053 4666 
Q 2853 4666 3247 4331 
Q 3641 3997 3641 3322 
Q 3641 2881 3436 2590 
Q 3231 2300 2841 2188 
z
M 1259 4147 
L 1259 2491 
L 2053 2491 
Q 2509 2491 2742 2702 
Q 2975 2913 2975 3322 
Q 2975 3731 2742 3939 
Q 2509 4147 2053 4147 
L 1259 4147 
z
" transform="scale(0.015625)"/>
      </defs>
      <use xlink:href="#DejaVuSans-52"/>
      <use xlink:href="#DejaVuSans-75" transform="translate(64.982422 0)"/>
      <use xlink:href="#DejaVuSans-46" transform="translate(128.361328 0)"/>
      <use xlink:href="#DejaVuSans-6c" transform="translate(185.880859 0)"/>
      <use xlink:href="#DejaVuSans-6f" transform="translate(213.664062 0)"/>
      <use xlink:href="#DejaVuSans-20" transform="translate(274.845703 0)"/>
      <use xlink:href="#DejaVuSans-4d" transform="translate(306.632812 0)"/>
      <use xlink:href="#DejaVuSans-65" transform="translate(392.912109 0)"/>
      <use xlink:href="#DejaVuSans-6d" transform="translate(454.435547 0)"/>
      <use xlink:href="#DejaVuSans-6f" transform="translate(551.847656 0)"/>
      <use xlink:href="#DejaVuSans-72" transform="translate(613.029297 0)"/>
      <use xlink:href="#DejaVuSans-79" transform="translate(654.142578 0)"/>
     </g>
    </g>
   </g>
   <g id="text_19">
    <g clip-path="url(#p4d2c54049d)">
     <!-- gitleaks -->
     <g style="fill: #ffffff" transform="translate(331.214372 884.992021) scale(0.07 -0.07)">
      <use xlink:href="#DejaVuSans-67"/>
      <use xlink:href="#DejaVuSans-69" transform="translate(63.476562 0)"/>
      <use xlink:href="#DejaVuSans-74" transform="translate(91.259766 0)"/>
      <use xlink:href="#DejaVuSans-6c" transform="translate(130.46875 0)"/>
      <use xlink:href="#DejaVuSans-65" transform="translate(158.251953 0)"/>
      <use xlink:href="#DejaVuSans-61" transform="translate(219.775391 0)"/>
      <use xlink:href="#DejaVuSans-6b" transform="translate(281.054688 0)"/>
      <use xlink:href="#DejaVuSans-73" transform="translate(338.964844 0)"/>
     </g>
    </g>
   </g>
   <g id="text_20">
    <g clip-path="url(#p4d2c54049d)">
     <!-- trivy -->
     <g style="fill: #ffffff" transform="translate(1353.200866 643.591916) scale(0.07 -0.07)">
      <use xlink:href="#DejaVuSans-74"/>
      <use xlink:href="#DejaVuSans-72" transform="translate(39.208984 0)"/>
      <use xlink:href="#DejaVuSans-69" transform="translate(80.322266 0)"/>
      <use xlink:href="#DejaVuSans-76" transform="translate(108.105469 0)"/>
      <use xlink:href="#DejaVuSans-79" transform="translate(167.285156 0)"/>
     </g>
    </g>
   </g>
   <g id="text_21">
    <g clip-path="url(#p4d2c54049d)">
     <!-- Home Assistant -->
     <g style="fill: #ffffff" transform="translate(44.280305 944.402252) scale(0.07 -0.07)">
      <defs>
       <path id="DejaVuSans-48" d="M 628 4666 
L 1259 4666 
L 1259 2753 
L 3553 2753 
L 3553 4666 
L 4184 4666 
L 4184 0 
L 3553 0 
L 3553 2222 
L 1259 2222 
L 1259 0 
L 628 0 
L 628 4666 
z
" transform="scale(0.015625)"/>
      </defs>
      <use xlink:href="#DejaVuSans-48"/>
      <use xlink:href="#DejaVuSans-6f" transform="translate(75.195312 0)"/>
      <use xlink:href="#DejaVuSans-6d" transform="translate(136.376953 0)"/>
      <use xlink:href="#DejaVuSans-65" transform="translate(233.789062 0)"/>
      <use xlink:href="#DejaVuSans-20" transform="translate(295.3125 0)"/>
      <use xlink:href="#DejaVuSans-41" transform="translate(327.099609 0)"/>
      <use xlink:href="#DejaVuSans-73" transform="translate(395.507812 0)"/>
      <use xlink:href="#DejaVuSans-73" transform="translate(447.607422 0)"/>
      <use xlink:href="#DejaVuSans-69" transform="translate(499.707031 0)"/>
      <use xlink:href="#DejaVuSans-73" transform="translate(527.490234 0)"/>
      <use xlink:href="#DejaVuSans-74" transform="translate(579.589844 0)"/>
      <use xlink:href="#DejaVuSans-61" transform="translate(618.798828 0)"/>
      <use xlink:href="#DejaVuSans-6e" transform="translate(680.078125 0)"/>
      <use xlink:href="#DejaVuSans-74" transform="translate(743.457031 0)"/>
     </g>
    </g>
   </g>
   <g id="text_22">
    <g clip-path="url(#p4d2c54049d)">
     <!-- ComfyUI -->
     <g style="fill: #ffffff" transform="translate(72.85264 616.951048) scale(0.07 -0.07)">
      <defs>
       <path id="DejaVuSans-66" d="M 2375 4863 
L 2375 4384 
L 1825 4384 
Q 1516 4384 1395 4259 
Q 1275 4134 1275 3809 
L 1275 3500 
L 2222 3500 
L 2222 3053 
L 1275 3053 
L 1275 0 
L 697 0 
L 697 3053 
L 147 3053 
L 147 3500 
L 697 3500 
L 697 3744 
Q 697 4328 969 4595 
Q 1241 4863 1831 4863 
L 2375 4863 
z
" transform="scale(0.015625)"/>
       <path id="DejaVuSans-55" d="M 556 4666 
L 1191 4666 
L 1191 1831 
Q 1191 1081 1462 751 
Q 1734 422 2344 422 
Q 2950 422 3222 751 
Q 3494 1081 3494 1831 
L 3494 4666 
L 4128 4666 
L 4128 1753 
Q 4128 841 3676 375 
Q 3225 -91 2344 -91 
Q 1459 -91 1007 375 
Q 556 841 556 1753 
L 556 4666 
z
" transform="scale(0.015625)"/>
      </defs>
      <use xlink:href="#DejaVuSans-43"/>
      <use xlink:href="#DejaVuSans-6f" transform="translate(69.824219 0)"/>
      <use xlink:href="#DejaVuSans-6d" transform="translate(131.005859 0)"/>
      <use xlink:href="#DejaVuSans-66" transform="translate(228.417969 0)"/>
      <use xlink:href="#DejaVuSans-79" transform="translate(261.873047 0)"/>
      <use xlink:href="#DejaVuSans-55" transform="translate(321.052734 0)"/>
      <use xlink:href="#DejaVuSans-49" transform="translate(394.246094 0)"/>
     </g>
    </g>
   </g>
   <g id="text_23">
    <g clip-path="url(#p4d2c54049d)">
     <!-- MCP Protocol -->
     <g style="fill: #ffffff" transform="translate(573.637455 325.266125) scale(0.07 -0.07)">
      <use xlink:href="#DejaVuSans-4d"/>
      <use xlink:href="#DejaVuSans-43" transform="translate(86.279297 0)"/>
      <use xlink:href="#DejaVuSans-50" transform="translate(156.103516 0)"/>
      <use xlink:href="#DejaVuSans-20" transform="translate(216.40625 0)"/>
      <use xlink:href="#DejaVuSans-50" transform="translate(248.193359 0)"/>
      <use xlink:href="#DejaVuSans-72" transform="translate(306.746094 0)"/>
      <use xlink:href="#DejaVuSans-6f" transform="translate(345.609375 0)"/>
      <use xlink:href="#DejaVuSans-74" transform="translate(406.791016 0)"/>
      <use xlink:href="#DejaVuSans-6f" transform="translate(446 0)"/>
      <use xlink:href="#DejaVuSans-63" transform="translate(507.181641 0)"/>
      <use xlink:href="#DejaVuSans-6f" transform="translate(562.162109 0)"/>
      <use xlink:href="#DejaVuSans-6c" transform="translate(623.34375 0)"/>
     </g>
    </g>
   </g>
   <g id="legend_1">
    <g id="patch_2">
     <path d="M 12.8 60.57 
L 141.88875 60.57 
Q 143.48875 60.57 143.48875 58.97 
L 143.48875 12.8 
Q 143.48875 11.2 141.88875 11.2 
L 12.8 11.2 
Q 11.2 11.2 11.2 12.8 
L 11.2 58.97 
Q 11.2 60.57 12.8 60.57 
z
" style="fill: #2a2a4e; opacity: 0.7; stroke: #cccccc; stroke-linejoin: miter"/>
    </g>
    <g id="patch_3">
     <path d="M 14.4 20.47875 
L 30.4 20.47875 
L 30.4 14.87875 
L 14.4 14.87875 
z
" style="fill: #4e79a7; stroke: #4e79a7; stroke-linejoin: miter"/>
    </g>
    <g id="text_24">
     <!-- Projects and Security (10) -->
     <g style="fill: #ffffff" transform="translate(36.8 20.47875) scale(0.08 -0.08)">
      <defs>
       <path id="DejaVuSans-6a" d="M 603 3500 
L 1178 3500 
L 1178 -63 
Q 1178 -731 923 -1031 
Q 669 -1331 103 -1331 
L -116 -1331 
L -116 -844 
L 38 -844 
Q 366 -844 484 -692 
Q 603 -541 603 -63 
L 603 3500 
z
M 603 4863 
L 1178 4863 
L 1178 4134 
L 603 4134 
L 603 4863 
z
" transform="scale(0.015625)"/>
       <path id="DejaVuSans-28" d="M 1984 4856 
Q 1566 4138 1362 3434 
Q 1159 2731 1159 2009 
Q 1159 1288 1364 580 
Q 1569 -128 1984 -844 
L 1484 -844 
Q 1016 -109 783 600 
Q 550 1309 550 2009 
Q 550 2706 781 3412 
Q 1013 4119 1484 4856 
L 1984 4856 
z
" transform="scale(0.015625)"/>
       <path id="DejaVuSans-31" d="M 794 531 
L 1825 531 
L 1825 4091 
L 703 3866 
L 703 4441 
L 1819 4666 
L 2450 4666 
L 2450 531 
L 3481 531 
L 3481 0 
L 794 0 
L 794 531 
z
" transform="scale(0.015625)"/>
       <path id="DejaVuSans-30" d="M 2034 4250 
Q 1547 4250 1301 3770 
Q 1056 3291 1056 2328 
Q 1056 1369 1301 889 
Q 1547 409 2034 409 
Q 2525 409 2770 889 
Q 3016 1369 3016 2328 
Q 3016 3291 2770 3770 
Q 2525 4250 2034 4250 
z
M 2034 4750 
Q 2819 4750 3233 4129 
Q 3647 3509 3647 2328 
Q 3647 1150 3233 529 
Q 2819 -91 2034 -91 
Q 1250 -91 836 529 
Q 422 1150 422 2328 
Q 422 3509 836 4129 
Q 1250 4750 2034 4750 
z
" transform="scale(0.015625)"/>
       <path id="DejaVuSans-29" d="M 513 4856 
L 1013 4856 
Q 1481 4119 1714 3412 
Q 1947 2706 1947 2009 
Q 1947 1309 1714 600 
Q 1481 -109 1013 -844 
L 513 -844 
Q 928 -128 1133 580 
Q 1338 1288 1338 2009 
Q 1338 2731 1133 3434 
Q 928 4138 513 4856 
z
" transform="scale(0.015625)"/>
      </defs>
      <use xlink:href="#DejaVuSans-50"/>
      <use xlink:href="#DejaVuSans-72" transform="translate(58.552734 0)"/>
      <use xlink:href="#DejaVuSans-6f" transform="translate(97.416016 0)"/>
      <use xlink:href="#DejaVuSans-6a" transform="translate(158.597656 0)"/>
      <use xlink:href="#DejaVuSans-65" transform="translate(186.380859 0)"/>
      <use xlink:href="#DejaVuSans-63" transform="translate(247.904297 0)"/>
      <use xlink:href="#DejaVuSans-74" transform="translate(302.884766 0)"/>
      <use xlink:href="#DejaVuSans-73" transform="translate(342.09375 0)"/>
      <use xlink:href="#DejaVuSans-20" transform="translate(394.193359 0)"/>
      <use xlink:href="#DejaVuSans-61" transform="translate(425.980469 0)"/>
      <use xlink:href="#DejaVuSans-6e" transform="translate(487.259766 0)"/>
      <use xlink:href="#DejaVuSans-64" transform="translate(550.638672 0)"/>
      <use xlink:href="#DejaVuSans-20" transform="translate(614.115234 0)"/>
      <use xlink:href="#DejaVuSans-53" transform="translate(645.902344 0)"/>
      <use xlink:href="#DejaVuSans-65" transform="translate(709.378906 0)"/>
      <use xlink:href="#DejaVuSans-63" transform="translate(770.902344 0)"/>
      <use xlink:href="#DejaVuSans-75" transform="translate(825.882812 0)"/>
      <use xlink:href="#DejaVuSans-72" transform="translate(889.261719 0)"/>
      <use xlink:href="#DejaVuSans-69" transform="translate(930.375 0)"/>
      <use xlink:href="#DejaVuSans-74" transform="translate(958.158203 0)"/>
      <use xlink:href="#DejaVuSans-79" transform="translate(997.367188 0)"/>
      <use xlink:href="#DejaVuSans-20" transform="translate(1056.546875 0)"/>
      <use xlink:href="#DejaVuSans-28" transform="translate(1088.333984 0)"/>
      <use xlink:href="#DejaVuSans-31" transform="translate(1127.347656 0)"/>
      <use xlink:href="#DejaVuSans-30" transform="translate(1190.970703 0)"/>
      <use xlink:href="#DejaVuSans-29" transform="translate(1254.59375 0)"/>
     </g>
    </g>
    <g id="patch_4">
     <path d="M 14.4 32.22125 
L 30.4 32.22125 
L 30.4 26.62125 
L 14.4 26.62125 
z
" style="fill: #f28e2b; stroke: #f28e2b; stroke-linejoin: miter"/>
    </g>
    <g id="text_25">
     <!-- Local AI Models (6) -->
     <g style="fill: #ffffff" transform="translate(36.8 32.22125) scale(0.08 -0.08)">
      <defs>
       <path id="DejaVuSans-36" d="M 2113 2584 
Q 1688 2584 1439 2293 
Q 1191 2003 1191 1497 
Q 1191 994 1439 701 
Q 1688 409 2113 409 
Q 2538 409 2786 701 
Q 3034 994 3034 1497 
Q 3034 2003 2786 2293 
Q 2538 2584 2113 2584 
z
M 3366 4563 
L 3366 3988 
Q 3128 4100 2886 4159 
Q 2644 4219 2406 4219 
Q 1781 4219 1451 3797 
Q 1122 3375 1075 2522 
Q 1259 2794 1537 2939 
Q 1816 3084 2150 3084 
Q 2853 3084 3261 2657 
Q 3669 2231 3669 1497 
Q 3669 778 3244 343 
Q 2819 -91 2113 -91 
Q 1303 -91 875 529 
Q 447 1150 447 2328 
Q 447 3434 972 4092 
Q 1497 4750 2381 4750 
Q 2619 4750 2861 4703 
Q 3103 4656 3366 4563 
z
" transform="scale(0.015625)"/>
      </defs>
      <use xlink:href="#DejaVuSans-4c"/>
      <use xlink:href="#DejaVuSans-6f" transform="translate(53.962891 0)"/>
      <use xlink:href="#DejaVuSans-63" transform="translate(115.144531 0)"/>
      <use xlink:href="#DejaVuSans-61" transform="translate(170.125 0)"/>
      <use xlink:href="#DejaVuSans-6c" transform="translate(231.404297 0)"/>
      <use xlink:href="#DejaVuSans-20" transform="translate(259.1875 0)"/>
      <use xlink:href="#DejaVuSans-41" transform="translate(290.974609 0)"/>
      <use xlink:href="#DejaVuSans-49" transform="translate(359.382812 0)"/>
      <use xlink:href="#DejaVuSans-20" transform="translate(388.875 0)"/>
      <use xlink:href="#DejaVuSans-4d" transform="translate(420.662109 0)"/>
      <use xlink:href="#DejaVuSans-6f" transform="translate(506.941406 0)"/>
      <use xlink:href="#DejaVuSans-64" transform="translate(568.123047 0)"/>
      <use xlink:href="#DejaVuSans-65" transform="translate(631.599609 0)"/>
      <use xlink:href="#DejaVuSans-6c" transform="translate(693.123047 0)"/>
      <use xlink:href="#DejaVuSans-73" transform="translate(720.90625 0)"/>
      <use xlink:href="#DejaVuSans-20" transform="translate(773.005859 0)"/>
      <use xlink:href="#DejaVuSans-28" transform="translate(804.792969 0)"/>
      <use xlink:href="#DejaVuSans-36" transform="translate(843.806641 0)"/>
      <use xlink:href="#DejaVuSans-29" transform="translate(907.429688 0)"/>
     </g>
    </g>
    <g id="patch_5">
     <path d="M 14.4 43.96375 
L 30.4 43.96375 
L 30.4 38.36375 
L 14.4 38.36375 
z
" style="fill: #e15759; stroke: #e15759; stroke-linejoin: miter"/>
    </g>
    <g id="text_26">
     <!-- Core Agent Stack (6) -->
     <g style="fill: #ffffff" transform="translate(36.8 43.96375) scale(0.08 -0.08)">
      <use xlink:href="#DejaVuSans-43"/>
      <use xlink:href="#DejaVuSans-6f" transform="translate(69.824219 0)"/>
      <use xlink:href="#DejaVuSans-72" transform="translate(131.005859 0)"/>
      <use xlink:href="#DejaVuSans-65" transform="translate(169.869141 0)"/>
      <use xlink:href="#DejaVuSans-20" transform="translate(231.392578 0)"/>
      <use xlink:href="#DejaVuSans-41" transform="translate(263.179688 0)"/>
      <use xlink:href="#DejaVuSans-67" transform="translate(331.587891 0)"/>
      <use xlink:href="#DejaVuSans-65" transform="translate(395.064453 0)"/>
      <use xlink:href="#DejaVuSans-6e" transform="translate(456.587891 0)"/>
      <use xlink:href="#DejaVuSans-74" transform="translate(519.966797 0)"/>
      <use xlink:href="#DejaVuSans-20" transform="translate(559.175781 0)"/>
      <use xlink:href="#DejaVuSans-53" transform="translate(590.962891 0)"/>
      <use xlink:href="#DejaVuSans-74" transform="translate(654.439453 0)"/>
      <use xlink:href="#DejaVuSans-61" transform="translate(693.648438 0)"/>
      <use xlink:href="#DejaVuSans-63" transform="translate(754.927734 0)"/>
      <use xlink:href="#DejaVuSans-6b" transform="translate(809.908203 0)"/>
      <use xlink:href="#DejaVuSans-20" transform="translate(867.818359 0)"/>
      <use xlink:href="#DejaVuSans-28" transform="translate(899.605469 0)"/>
      <use xlink:href="#DejaVuSans-36" transform="translate(938.619141 0)"/>
      <use xlink:href="#DejaVuSans-29" transform="translate(1002.242188 0)"/>
     </g>
    </g>
    <g id="patch_6">
     <path d="M 14.4 55.70625 
L 30.4 55.70625 
L 30.4 50.10625 
L 14.4 50.10625 
z
" style="fill: #76b7b2; stroke: #76b7b2; stroke-linejoin: miter"/>
    </g>
    <g id="text_27">
     <!-- Security Scanning (1) -->
     <g style="fill: #ffffff" transform="translate(36.8 55.70625) scale(0.08 -0.08)">
      <use xlink:href="#DejaVuSans-53"/>
      <use xlink:href="#DejaVuSans-65" transform="translate(63.476562 0)"/>
      <use xlink:href="#DejaVuSans-63" transform="translate(125 0)"/>
      <use xlink:href="#DejaVuSans-75" transform="translate(179.980469 0)"/>
      <use xlink:href="#DejaVuSans-72" transform="translate(243.359375 0)"/>
      <use xlink:href="#DejaVuSans-69" transform="translate(284.472656 0)"/>
      <use xlink:href="#DejaVuSans-74" transform="translate(312.255859 0)"/>
      <use xlink:href="#DejaVuSans-79" transform="translate(351.464844 0)"/>
      <use xlink:href="#DejaVuSans-20" transform="translate(410.644531 0)"/>
      <use xlink:href="#DejaVuSans-53" transform="translate(442.431641 0)"/>
      <use xlink:href="#DejaVuSans-63" transform="translate(505.908203 0)"/>
      <use xlink:href="#DejaVuSans-61" transform="translate(560.888672 0)"/>
      <use xlink:href="#DejaVuSans-6e" transform="translate(622.167969 0)"/>
      <use xlink:href="#DejaVuSans-6e" transform="translate(685.546875 0)"/>
      <use xlink:href="#DejaVuSans-69" transform="translate(748.925781 0)"/>
      <use xlink:href="#DejaVuSans-6e" transform="translate(776.708984 0)"/>
      <use xlink:href="#DejaVuSans-67" transform="translate(840.087891 0)"/>
      <use xlink:href="#DejaVuSans-20" transform="translate(903.564453 0)"/>
      <use xlink:href="#DejaVuSans-28" transform="translate(935.351562 0)"/>
      <use xlink:href="#DejaVuSans-31" transform="translate(974.365234 0)"/>
      <use xlink:href="#DejaVuSans-29" transform="translate(1037.988281 0)"/>
     </g>
    </g>
   </g>
  </g>
 </g>
 <defs>
  <clipPath id="p4d2c54049d">
   <rect x="7.2" y="7.2" width="1418.4" height="986.4"/>
  </clipPath>
 </defs>
</svg>
